<svg preserveAspectRatio="none" width="100%" height="100%" overflow="visible" style="display: block;" viewBox="0 0 502 1061" fill="none" xmlns="http://www.w3.org/2000/svg">
<path id="Vector" d="M501.5 0.5V140.632C501.5 314.219 373.653 424.568 266.251 486.635L266.076 486.735L266.031 486.892C248.809 496.844 232.633 508.772 217.992 522.366L217.833 522.515V522.538C193.357 545.262 172.941 569.234 158.642 599.756C144.31 630.345 136.137 667.482 136.137 716.484V925.064H363.754C369.042 925.064 373.745 922.775 377.122 919.506C380.492 916.243 382.582 911.963 382.582 907.937C382.582 904.795 382.312 902.566 381.642 900.511C380.973 898.46 379.914 896.614 378.391 894.231L378.387 894.224L378.382 894.217L377.693 893.237C370.384 883.061 357.113 871.238 341.476 857.165C325.31 842.616 306.561 825.62 289.062 805.446C254.072 765.105 224.11 712.091 229.873 640.64C235.058 576.343 265.22 528.832 310.953 500.171C356.606 471.56 417.823 461.705 485.295 472.763V605.512C462.276 603.811 427.783 602.455 397.686 609.104C367.366 615.803 341.318 630.677 336.17 661.698C332.707 682.586 339.127 702.865 350.635 722.88C362.14 742.89 378.764 762.694 395.781 782.639C412.811 802.598 430.237 822.7 443.41 843.354C456.582 864.005 465.469 885.156 465.469 907.2C465.469 954.729 450.054 993.093 434.636 1019.58C426.927 1032.82 419.218 1043.09 413.438 1050.05C410.549 1053.53 408.141 1056.18 406.458 1057.96C405.617 1058.85 404.956 1059.52 404.507 1059.97C404.282 1060.19 404.11 1060.36 403.995 1060.47C403.985 1060.48 403.974 1060.49 403.965 1060.5H0.5V716.484C0.5 593.93 39.1152 503.495 125.689 423.178C147.79 402.67 172.191 384.681 198.221 369.634L198.396 369.532L198.439 369.375C309.443 305.207 365.863 228.264 365.863 140.654V135.936H34.251V0.5H501.5Z" stroke="var(--stroke-0, #1E1E1E)"/>
</svg>
