<svg preserveAspectRatio="none" width="100%" height="100%" overflow="visible" style="display: block;" viewBox="0 0 344 405" fill="none" xmlns="http://www.w3.org/2000/svg">
<g id="logo 1">
<path id="Vector" d="M108.124 234.549C110.988 231.89 114.153 229.559 117.523 227.616L117.532 227.585C138.517 215.462 163.527 193.891 163.527 159.945V132.487H72.0741V159.126H136.84V159.949C136.84 177.014 125.844 192.018 104.156 204.542L104.147 204.572C99.0572 207.514 94.2857 211.03 89.9639 215.039C73.0345 230.74 65.4822 248.424 65.4822 272.378V339.643H144.419C144.419 339.643 156.489 328.217 156.489 309.614C156.489 292.293 128.55 277.886 131.235 261.697C133.226 249.705 151.373 250.145 160.362 250.816V224.709C133.907 220.343 112.311 232.396 110.281 257.562C108.024 285.534 133.754 299.064 139.303 307.135C139.896 308.063 140.106 308.542 140.106 309.758C140.106 311.266 138.534 313.005 136.526 313.005H92.1684V272.378C92.1684 253.265 98.5464 243.434 108.124 234.553V234.549Z" fill="var(--fill-0, white)"/>
<path id="Vector_2" d="M219.833 292.362C212.464 292.362 205.483 294.053 199.254 297.064V266.02C199.254 242.51 213.127 229.272 224.277 220.16C256.869 193.517 278.513 181.864 278.513 152.729C278.513 140.531 270.673 132.557 258.803 132.557C234.012 132.561 232.562 169.946 216.257 169.946C199.952 169.946 205.732 132.483 205.732 132.483C205.732 132.483 182.163 132.483 176.505 132.483C176.505 132.483 167.346 187.202 205.003 189.852C244.074 192.601 248.968 150.484 258.17 150.484C260.742 150.484 261.807 151.879 261.807 154.746C261.807 175.28 230.546 188.218 206.985 206.537C189.602 220.055 172.576 234.867 172.576 269.423V336.763C172.52 337.717 172.48 338.671 172.48 339.639H172.576H199.166H199.262V337.678C200.258 327.215 209.102 319.005 219.841 319.005C231.24 319.005 240.516 328.261 240.516 339.643H267.202C267.202 313.575 245.96 292.371 219.846 292.371L219.833 292.362Z" fill="var(--fill-0, white)"/>
<g id="Group">
<path id="Vector_3" d="M92.6224 115.187V107.404C89.0253 112.594 84.8955 114.856 81.163 114.856C76.0991 114.856 71.834 111.265 71.834 105.343C71.834 97.4948 79.2946 95.5643 92.2863 93.8343V90.444C92.2863 85.1886 88.89 82.4607 85.8254 81.9944L77.8977 92.0389L71.7685 85.5852C76.0991 82.5914 81.2285 80.4649 86.4933 80.4649C93.155 80.4649 99.485 83.7898 99.485 91.8385V107.204L105.749 110.93L92.6224 115.187ZM92.2907 95.5643C84.8301 97.0285 79.7661 99.556 79.7661 104.41C79.7661 107.801 82.2981 109.265 84.961 109.265C87.624 109.265 90.2913 107.801 92.2907 105.073V95.5599V95.5643Z" fill="var(--fill-0, white)"/>
<path id="Vector_4" d="M121.806 114.851C116.873 114.851 112.411 111.06 112.411 104.21V83.3235H106.081L119.605 71.9499V81.1316H130.799L130.201 83.3279H119.605V102.685C119.605 107.539 122.605 109.936 126.267 109.936C128.332 109.936 130.397 109.204 132.396 108.075C129.799 112.599 125.669 114.86 121.801 114.86L121.806 114.851Z" fill="var(--fill-0, white)"/>
<path id="Vector_5" d="M165.517 102.48C164.583 107.801 160.388 114.851 151.526 114.851C143.131 114.851 135.736 108.533 135.736 98.2879C135.736 89.2413 141.533 80.4605 152.259 80.4605C160.855 80.4605 165.12 86.9796 165.452 94.6274H142.131V95.4902C142.131 101.944 145.663 108.263 154.324 108.263C158.388 108.263 161.986 106.533 165.517 102.476V102.48ZM142.398 92.4355H157.59C157.655 91.9038 157.655 91.3722 157.655 90.7708C157.655 86.5134 155.856 82.3213 151.792 82.3213C146.794 82.3213 143.397 87.045 142.398 92.4311V92.4355Z" fill="var(--fill-0, white)"/>
<path id="Vector_6" d="M182.241 109.33L188.17 114.119H169.114L175.043 109.33V73.6799L168.577 69.8234L182.237 65.3655V109.335L182.241 109.33Z" fill="var(--fill-0, white)"/>
<path id="Vector_7" d="M204.497 109.33L210.425 114.119H191.37L197.298 109.33V88.775L190.833 84.9184L204.492 80.4605V109.33H204.497ZM195.032 70.6208C195.032 67.6925 197.298 65.5005 200.162 65.5005C203.025 65.5005 205.291 67.6968 205.291 70.6208C205.291 73.5449 202.96 75.8109 200.162 75.8109C197.363 75.8109 195.032 73.6146 195.032 70.6208Z" fill="var(--fill-0, white)"/>
<path id="Vector_8" d="M243.537 102.48C242.603 107.801 238.408 114.851 229.546 114.851C221.151 114.851 213.756 108.533 213.756 98.2879C213.756 89.2413 219.553 80.4605 230.279 80.4605C238.875 80.4605 243.14 86.9796 243.472 94.6274H220.151V95.4902C220.151 101.944 223.683 108.263 232.344 108.263C236.408 108.263 240.005 106.533 243.537 102.476V102.48ZM220.422 92.4355H235.614C235.679 91.9038 235.679 91.3722 235.679 90.7708C235.679 86.5134 233.881 82.3213 229.816 82.3213C224.818 82.3213 221.422 87.045 220.422 92.4311V92.4355Z" fill="var(--fill-0, white)"/>
<path id="Vector_9" d="M272.655 89.7075C270.922 88.178 268.922 87.5113 267.124 87.5113C264.125 87.5113 261.527 89.3066 261.06 92.0346V109.33L267.656 114.119H247.938L253.866 109.33V88.775L247.27 84.8487L260.663 80.4562V89.3023C261.994 83.6503 265.461 80.6566 269.927 80.6566C271.323 80.6566 273.057 80.9224 274.659 81.4541L272.659 89.7032L272.655 89.7075Z" fill="var(--fill-0, white)"/>
</g>
</g>
</svg>
